Coordinates
version=1
nRows=13
nColumns=34
inDegrees=yes

Units are S.I. units (second, meters, Newtons, ...)
If the header above contains a line with 'inDegrees', this indicates whether rotational values are in degrees (yes) or radians (no).

endheader
time	pelvis_tilt	pelvis_list	pelvis_rotation	pelvis_tx	pelvis_ty	pelvis_tz	hip_flexion_r	hip_adduction_r	hip_rotation_r	knee_angle_r	ankle_angle_r	subtalar_angle_r	mtp_angle_r	hip_flexion_l	hip_adduction_l	hip_rotation_l	knee_angle_l	ankle_angle_l	subtalar_angle_l	mtp_angle_l	lumbar_extension	lumbar_bending	lumbar_rotation	arm_flex_r	arm_add_r	arm_rot_r	elbow_flex_r	pro_sup_r	arm_flex_l	arm_add_l	arm_rot_l	elbow_flex_l	pro_sup_l
      2.13333330	      5.10492348	     -1.49325292	     -3.02515344	     -6.46744597	      0.96326185	      0.25610187	    -13.92576326	      4.23669354	    -15.34110242	      6.64403048	      1.07934428	    -27.00077856	      0.00000000	     16.79657763	      0.97458130	      3.12654133	     36.76839418	      0.68344798	    -27.73634153	      0.00000000	    -18.03055254	     -0.58764483	     -0.56337540	     48.87428687	     -4.48573204	     17.49324621	    146.33426396	    102.52199359	     21.95936901	     -7.79569799	     -5.36675326	     28.66019590	     85.62198834
      2.15000000	      4.70661873	     -1.33878789	     -3.16654946	     -6.45933266	      0.96422218	      0.25354649	    -13.76548025	      3.83905284	    -14.82309706	      7.00144849	      1.63863909	    -26.35693283	      0.00000000	     16.90367366	      1.23141348	      2.83073541	     37.28795665	      1.37083131	    -27.71654214	      0.00000000	    -17.94945400	     -0.78340616	     -0.52414705	     49.23703278	     -3.94247780	     17.44809829	    146.61853969	    102.76632616	     20.77279657	     -8.08102170	     -6.04105052	     28.83610508	     85.73965282
      2.16666670	      4.57348673	     -1.14744676	     -3.18558906	     -6.45125782	      0.96417590	      0.25086802	    -14.01801766	      3.37928788	    -15.08410410	      7.24802838	      1.26948608	    -26.12419538	      0.00000000	     16.50433396	      1.64174438	      2.72307111	     37.53623197	      1.74086195	    -27.85769391	      0.00000000	    -17.92581354	     -1.03204654	     -0.24478129	     49.46501169	     -4.09337013	     17.42852059	    146.73478169	    102.83764299	     19.90798273	     -8.27139730	     -6.26149592	     28.74801400	     85.75680917
      2.18333330	      4.94989789	     -0.90311771	     -3.33558581	     -6.44380704	      0.96418441	      0.24883406	    -14.74297792	      2.76318167	    -15.46493655	      7.64626009	      0.23740720	    -26.50586947	      0.00000000	     15.33174731	      2.09279806	      2.36109042	     37.37671247	      2.07323131	    -27.64226777	      0.00000000	    -18.80469092	     -1.34489005	     -0.32626923	     50.50159017	     -3.57598875	     17.73238975	    146.65567281	    104.08654318	     18.58246732	     -8.25468934	     -9.28692750	     30.66142533	     86.11642338
      2.20000000	      4.82481463	     -0.67925197	     -3.45418611	     -6.43597148	      0.96262449	      0.24691994	    -14.67181732	      2.13362255	    -16.10229925	      8.50718037	     -0.32971709	    -26.64944544	      0.00000000	     14.76592453	      2.55530205	      2.13730291	     37.16380402	      2.49170163	    -27.96648778	      0.00000000	    -18.84718447	     -1.63605310	     -0.01580986	     51.11621878	     -3.48955028	     17.69844661	    146.94655825	    104.13068560	     18.18354729	     -8.47590136	     -9.40229608	     30.41089030	     86.14928051
      2.21666670	      5.32514390	     -0.47027385	     -3.63401330	     -6.42876557	      0.95996559	      0.24505222	    -15.06276956	      1.49512306	    -15.93533798	      9.61608013	     -2.15669665	    -28.90009545	      0.00000000	     13.68653018	      3.03320984	      1.95684382	     37.02459313	      2.52623268	    -28.54821190	      0.00000000	    -19.78177969	     -1.93783881	      0.40407137	     52.41497090	     -3.26373291	     17.92574793	    147.19011533	    104.58638667	     18.22569853	     -8.71658267	     -9.81052269	     30.40550836	     86.54818150
      2.23333330	      5.33253062	     -0.35219707	     -3.63433939	     -6.42006171	      0.95594613	      0.24215339	    -14.72872962	      0.91349887	    -16.01182294	     11.25108275	     -2.17504193	    -29.34704729	      0.00000000	     13.47417896	      3.39280820	      1.86475941	     37.46924279	      3.28955782	    -29.00515340	      0.00000000	    -19.86936391	     -2.03601018	      0.65188801	     53.21360569	     -3.27324379	     17.74398857	    147.12308236	    104.62149030	     17.98135786	     -9.07470645	     -9.86993073	     30.31998252	     86.59689405
      2.25000000	      4.89701676	     -0.22284455	     -3.73980476	     -6.41054317	      0.95028528	      0.23906826	    -13.84632106	      0.32489882	    -15.14168758	     13.15082325	     -2.80221849	    -31.49852942	      0.00000000	     13.91649847	      3.69183145	      1.59695907	     38.32305070	      4.46255302	    -28.76169764	      0.00000000	    -19.31655215	     -1.98940749	      0.65018861	     53.91529574	     -2.80333919	     17.96838299	    146.25309223	    104.94097982	     17.06197020	     -9.61998277	     -9.78447376	     30.76637502	     87.03223007
      2.26666670	      4.73581692	      0.06464613	     -3.65894005	     -6.40104533	      0.94583555	      0.23577776	    -13.50856399	     -0.48481491	    -15.24600208	     14.84452039	     -2.70160136	    -32.44763723	      0.00000000	     13.87450454	      4.32067279	      1.68598316	     38.95599959	      5.48696126	    -28.93891968	      0.00000000	    -19.11501637	     -2.16909718	      0.83521294	     54.44791612	     -2.98062069	     17.89151402	    145.85502525	    105.02408786	     16.74849466	    -10.00567220	     -9.82411058	     30.83548311	     87.15473078
      2.28333330	      3.75460867	      0.31237290	     -3.59147449	     -6.39037701	      0.94161688	      0.23248798	    -12.43554089	     -1.11960568	    -14.91682667	     16.32293577	     -3.88267351	    -34.71270217	      0.00000000	     14.69392485	      4.75639550	      1.51910246	     39.71308455	      7.41048428	    -28.21676713	      0.00000000	    -17.90858717	     -2.33967490	      0.72723625	     54.38661892	     -2.84047443	     18.03896163	    145.29212937	    105.32731327	     15.72055115	    -10.58463851	     -9.78495837	     31.38235389	     87.64077703
      2.30000000	      3.12732600	      0.70858125	     -3.33942828	     -6.37901818	      0.93802463	      0.22848522	    -11.95886892	     -1.95126684	    -15.47526397	     17.50767505	     -3.67881086	    -35.00000000	      0.00000000	     14.93752279	      5.46770516	      1.56849278	     40.14689082	      8.95598476	    -27.88703969	      0.00000000	    -17.24091023	     -2.78716030	      0.83346342	     54.54769039	     -3.04078706	     17.86822417	    145.38303916	    105.52697685	     15.04648805	    -11.07461970	     -9.84595519	     32.03868845	     87.99209282
      2.31666670	      2.75812200	      1.07280434	     -3.00965149	     -6.36805344	      0.93487707	      0.22403361	    -11.90431734	     -2.62312998	    -15.59174351	     18.29316807	     -3.46244986	    -35.00000000	      0.00000000	     14.80823733	      6.25744066	      1.85322830	     40.40014962	     10.20421153	    -28.29680066	      0.00000000	    -16.84294646	     -3.20531577	      1.05951203	     55.05966328	     -3.26021115	     17.70976980	    145.41236537	    105.55003635	     14.63763659	    -11.32230133	     -9.86971504	     32.15635956	     88.04357831
      2.33333330	      1.75749805	      1.43011827	     -2.69169108	     -6.35758150	      0.93057292	      0.22012471	    -10.84505511	     -3.24411258	    -15.39956467	     19.48865413	     -2.06134359	    -35.00000000	      0.00000000	     15.47150604	      6.89145816	      1.85893559	     40.73689951	     11.98535774	    -27.36543086	      0.00000000	    -15.75450102	     -3.80757607	      1.18963863	     54.87851500	     -3.39377015	     17.27011002	    145.80494962	    105.71659812	     13.56818744	    -11.81019767	     -9.55724111	     33.68029103	     88.40783845
